<svg
    width="24"
    height="24"
    viewBox="0 0 24 24"
    fill="none"
    xmlns="http://www.w3.org/2000/svg"
    
  >
    <rect width="24" height="24" rx="4" fill="#00A6FF" />
    <path
      d="M8.20948 17.5602C8.04155 17.5676 7.87603 17.5183 7.73948 17.4202L3.24948 13.7102C2.9602 13.4541 2.91665 13.0186 3.14948 12.7102C3.40515 12.4223 3.83734 12.3748 4.14948 12.6002L8.14948 15.8602L18.6495 6.15024C18.96 5.91711 19.3971 5.95953 19.657 6.24802C19.9169 6.5365 19.9136 6.97565 19.6495 7.26024L8.71948 17.3602C8.58026 17.488 8.39843 17.5593 8.20948 17.5602Z"
      fill="white"
    />
    <path
      d="M11.2095 17.5602C11.0416 17.5676 10.876 17.5183 10.7395 17.4202L6.24948 13.7102C5.9602 13.4541 5.91665 13.0186 6.14948 12.7102C6.40515 12.4223 6.83734 12.3748 7.14948 12.6002L11.1495 15.8602L21.6495 6.15024C21.96 5.91711 22.3971 5.95953 22.657 6.24802C22.9169 6.5365 22.9136 6.97565 22.6495 7.26024L11.7195 17.3602C11.5803 17.488 11.3984 17.5593 11.2095 17.5602Z"
      fill="white"
    />
  </svg>