<svg width="16" height="16" viewBox="0 0 16 16" fill="none" xmlns="http://www.w3.org/2000/svg">
<path d="M3.25 9.5C3.94036 9.5 4.5 8.94036 4.5 8.25C4.5 7.55964 3.94036 7 3.25 7C2.55964 7 2 7.55964 2 8.25C2 8.94036 2.55964 9.5 3.25 9.5Z" stroke="#28353D"/>
<path d="M7.91669 9.5C8.60704 9.5 9.16669 8.94036 9.16669 8.25C9.16669 7.55964 8.60704 7 7.91669 7C7.22633 7 6.66669 7.55964 6.66669 8.25C6.66669 8.94036 7.22633 9.5 7.91669 9.5Z" stroke="#28353D"/>
<path d="M12.5833 9.5C13.2737 9.5 13.8333 8.94036 13.8333 8.25C13.8333 7.55964 13.2737 7 12.5833 7C11.893 7 11.3333 7.55964 11.3333 8.25C11.3333 8.94036 11.893 9.5 12.5833 9.5Z" stroke="#28353D"/>
</svg>
