<svg width="24" height="24" viewBox="0 0 24 24" fill="none" xmlns="http://www.w3.org/2000/svg">
  <g transform="translate(1,1)">
    <path d="M14 7C12.3431 7 11 5.65685 11 4V4C11 2.34315 12.3431 1 14 1H16C17.6569 1 19 2.34315 19 4V4C19 5.65685 17.6569 7 16 7H14ZM5 11C2.79086 11 1 9.20914 1 7V5C1 2.79086 2.79086 1 5 1V1C7.20914 1 9 2.79086 9 5V7C9 9.20914 7.20914 11 5 11V11ZM15 19C12.7909 19 11 17.2091 11 15V13C11 10.7909 12.7909 9 15 9V9C17.2091 9 19 10.7909 19 13V15C19 17.2091 17.2091 19 15 19V19ZM4 19C2.34315 19 1 17.6569 1 16V16C1 14.3431 2.34315 13 4 13H6C7.65685 13 9 14.3431 9 16V16C9 17.6569 7.65685 19 6 19H4Z" stroke="#28353D"/>
  </g>
</svg>
