<svg width="26" height="26" viewBox="0 0 24 24" fill="none" xmlns="http://www.w3.org/2000/svg">
    <path d="M13.5361 10.6865C12.8952 11.2915 12.5451 11.7357 12.4297 12.0273C12.3084 12.3339 12.2402 12.7748 12.2402 13.3652V13.6152H9.70508V13.3652C9.70508 12.3942 9.79453 11.6708 10.0068 11.2461C10.114 11.0318 10.3018 10.7841 10.5547 10.5078C10.81 10.2289 11.1419 9.90851 11.5488 9.54785L11.5547 9.54297L11.7148 9.73535L11.5557 9.54297C11.8696 9.28202 12.1283 9.00045 12.334 8.7002C12.503 8.45335 12.5948 8.19663 12.6152 7.92676L12.6201 7.80957C12.62 7.49617 12.5022 7.20146 12.2451 6.91992C12.014 6.66715 11.6519 6.51959 11.1104 6.51953C10.5003 6.51953 10.0908 6.69648 9.83105 7.00781C9.52301 7.37709 9.33955 7.70362 9.26075 7.9873L9.18652 8.25391L8.92871 8.15234L7.11328 7.4375L6.89355 7.35059L6.96777 7.12598C7.23895 6.3102 7.71993 5.61224 8.4043 5.03418C9.11016 4.43801 10.0201 4.15039 11.1104 4.15039C12.1842 4.15045 13.126 4.439 13.9248 5.02344C14.6965 5.58813 15.1026 6.3855 15.1504 7.38672L15.1553 7.58984C15.1553 8.2329 15.008 8.7992 14.7031 9.27734C14.4159 9.72775 14.0276 10.196 13.542 10.6816L13.5361 10.6865ZM13.5361 10.6865L13.3652 10.5049M10.9443 14.5996C10.495 14.5998 10.1055 14.7589 9.792 15.0732C9.47903 15.3873 9.32117 15.7761 9.32031 16.2246L9.32716 16.3906C9.36172 16.7708 9.51795 17.1039 9.79297 17.3789C10.068 17.6538 10.4005 17.8089 10.7803 17.8428L10.9453 17.8496C11.3947 17.8495 11.7845 17.692 12.0986 17.3779C12.4129 17.0637 12.5711 16.6738 12.5703 16.2246L12.5625 16.0596C12.5281 15.6795 12.373 15.3464 12.0986 15.0713C11.7848 14.7568 11.3946 14.5988 10.9443 14.5996Z" stroke="#28353D"/>
</svg>
