<svg width="24" height="24" viewBox="0 0 24 24" fill="none" xmlns="http://www.w3.org/2000/svg">
<path d="M11.4991 2.5C11.8716 2.5 12.2345 2.61122 12.5421 2.81738L12.671 2.91113L19.796 8.61816C20.2406 8.97424 20.5 9.51402 20.5001 10.085V19.6221C20.5001 20.1202 20.3021 20.5981 19.9503 20.9502C19.5986 21.3022 19.1221 21.5 18.6251 21.5H13.8751C13.7722 21.5 13.6724 21.4694 13.588 21.4131L13.5089 21.3486V21.3477C13.4121 21.2506 13.3577 21.119 13.3575 20.9814V13.3477H9.6427V20.9814C9.6426 21.0848 9.61219 21.185 9.55579 21.2695L9.49133 21.3477V21.3486C9.39422 21.4459 9.26227 21.5 9.12512 21.5H4.37512C3.94014 21.5 3.52033 21.349 3.18665 21.0752L3.04993 20.9502C2.69822 20.5981 2.50012 20.1202 2.50012 19.6221V10.084C2.50013 9.58559 2.69837 9.10955 3.04602 8.75977L3.20422 8.61816L10.3292 2.91113L10.339 2.90234C10.6695 2.64163 11.0783 2.50007 11.4991 2.5Z" stroke="#28353D"/>
</svg>
