<svg width="24" height="24" viewBox="0 0 24 24" fill="none" xmlns="http://www.w3.org/2000/svg">
  <g transform="translate(1,1)">
    <svg width="22" height="22" viewBox="0 0 22 22">
      <path d="M10.1318 0.5H11.8955C12.851 0.500215 13.6563 1.21202 13.7744 2.16016L13.8594 2.83887C13.9408 3.49264 14.3794 3.98387 14.8584 4.27637C15.3675 4.58727 16.0182 4.68449 16.6104 4.43457L17.2012 4.18555C18.101 3.80558 19.1431 4.15574 19.6309 5.00195L20.5059 6.52148C20.9866 7.35607 20.7732 8.41758 20.0068 9.00098L19.1758 9.63379C18.8385 9.89047 18.7091 10.2842 18.709 10.6289V11.3711C18.7091 11.6683 18.7908 12.0947 19.1514 12.3691L20.082 13.0771C20.7454 13.582 20.9606 14.4752 20.6191 15.2197L20.5439 15.3662L19.5967 17.0098C19.1138 17.8479 18.0814 18.1933 17.1914 17.8145L16.6221 17.5723C16.023 17.3173 15.3666 17.4168 14.8516 17.7188C14.3564 18.0091 13.9398 18.5098 13.8604 19.1484L13.7783 19.8125C13.6585 20.7762 12.8393 21.5 11.8682 21.5H10.1045C9.14905 21.4998 8.34367 20.788 8.22559 19.8398L8.14062 19.1611C8.06942 18.5891 7.72525 18.1408 7.31934 17.8418L7.1416 17.7236C6.66421 17.4321 6.06234 17.3283 5.50098 17.5225L5.38965 17.5654L4.79883 17.8145C3.89901 18.1944 2.85687 17.8443 2.36914 16.998L1.49414 15.4785C1.01336 14.6439 1.22682 13.5824 1.99316 12.999L2.82422 12.3662C3.16148 12.1095 3.29092 11.7158 3.29102 11.3711V10.6289C3.29093 10.3274 3.19191 9.98836 2.94141 9.73633L2.82422 9.63379L1.99316 9.00098C1.22682 8.41758 1.01336 7.35607 1.49414 6.52148L2.36816 5.00391C2.85628 4.15658 3.89896 3.80612 4.7998 4.18652L5.37793 4.43066C5.90264 4.65223 6.47056 4.60275 6.94922 4.38477L7.14844 4.28125C7.64358 3.99095 8.06022 3.4902 8.13965 2.85156L8.22168 2.1875C8.34154 1.2238 9.16072 0.500037 10.1318 0.5ZM11.0547 6.65039C9.84751 6.6504 8.80996 7.07729 7.97461 7.92676C7.14267 8.77282 6.72289 9.80687 6.72363 11L6.72852 11.2217C6.77764 12.3215 7.19529 13.28 7.97461 14.0732C8.80936 14.9229 9.8469 15.3496 11.0547 15.3496C12.2461 15.3496 13.2766 14.9209 14.1182 14.0752C14.9596 13.2295 15.3857 12.1951 15.3857 11C15.3857 9.80491 14.9596 8.77046 14.1182 7.9248C13.2766 7.07906 12.2461 6.65039 11.0547 6.65039Z" stroke="#28353D"/>
    </svg>
  </g>
</svg>
